<svg xmlns="http://www.w3.org/2000/svg" viewBox="0 0 110.2 93.87"><defs><style>.cls-1{fill:#ec556c;}</style></defs><title>Asset 1</title><g id="Layer_2" data-name="Layer 2"><g id="Layer_1-2" data-name="Layer 1"><path class="cls-1" d="M52.48,63.53a.89.89,0,0,0-1,.3L45,72.3a2,2,0,0,1-1.6.79,2,2,0,0,1-1-.27l-29.71-17a.89.89,0,0,0-1.33.77V69.87a.89.89,0,0,0,.44.77L51.74,93.75A.89.89,0,0,0,53.08,93V64.37A.89.89,0,0,0,52.48,63.53Z"/><path class="cls-1" d="M98.4,55.87a.89.89,0,0,0-.89,0l-29.71,17a2,2,0,0,1-2.6-.52l-6.48-8.47a.89.89,0,0,0-1.6.54V93a.89.89,0,0,0,1.34.77L98.4,70.64a.89.89,0,0,0,.44-.77V56.64A.89.89,0,0,0,98.4,55.87Z"/><path class="cls-1" d="M110.19,19.71a.89.89,0,0,0-.5-.66L69.48.08a.89.89,0,0,0-1,.14L57,10.39l-1.5-.79a.89.89,0,0,0-.84,0l-1.5.79L41.69.22a.89.89,0,0,0-1-.14L.51,19.05A.89.89,0,0,0,.27,20.5l12,11.6-1.89,1a.89.89,0,0,0-.36.35L3.51,45a.89.89,0,0,0,.33,1.21L42.19,68.06a.89.89,0,0,0,1.15-.23l8.1-10.58a.89.89,0,0,0-.28-1.32l-38.07-21L53.65,13.43V39.89l-10,5.77a.89.89,0,0,0,0,1.55l11,6a.89.89,0,0,0,.86,0l11-6a.89.89,0,0,0,0-1.55l-10-5.77V13.43L97.11,34.95,59,55.92a.89.89,0,0,0-.28,1.32l8.1,10.58a.89.89,0,0,0,1.15.23l38.35-21.89A.89.89,0,0,0,106.7,45l-6.52-11.51a.89.89,0,0,0-.36-.35l-1.89-1,12-11.6A.89.89,0,0,0,110.19,19.71Z"/></g></g></svg>