<svg version="1" xmlns="http://www.w3.org/2000/svg" width="512" height="512" viewBox="0 0 384.000000 384.000000"><path d="M170.7 14.7c-1 22.6-5.3 40.7-13.7 57.4-5 10.1-9.3 16.3-24.5 35.4-23.4 29.6-32.8 45.8-37.8 65.4-1.8 7.1-2.1 11.4-2.1 24.6.1 13.9.4 17.3 2.6 25.5 8.9 33.2 31.5 57.5 63.9 68.8 24.7 8.6 54.7 8.1 76.2-1.5 21.6-9.6 36.1-22.7 45.6-41.3 5.6-10.8 7.3-16.7 9.7-33 1.5-9.9 1.5-13 .5-22.5-2.5-22-5.4-33.1-12.1-46.5-7-13.9-14.4-22.5-35-40.8-16.9-15-24.7-23.1-29.9-31.2-4.3-6.6-8.1-17-8.1-22.1 0-4.5-1.5-3.5-4.6 3.3-2.6 5.7-2.9 7.3-2.8 16.3.1 12.4 1.7 17.1 12 35.3 12.7 22.4 18.4 36.1 18.4 44.6v4.1l-15.5-.4c-19.5-.4-21.4.2-11.5 3.8 4.1 1.5 9 3.6 10.8 4.5 8.3 4.3 22.7 22.4 27.3 34.4 1.7 4.5 2.2 7.7 2.1 15.2 0 11.6-2.5 20.2-8.1 28.7-12.4 18.4-37.7 24.9-58.6 14.9-19.1-9-29.6-28.1-26.7-48.7 2.2-15.2 7.7-28 23.5-54 16.6-27.5 20.5-39.2 21.4-64.9.7-20.2-1.9-38.8-8.3-59.5C182 19.9 173.7 0 172.5 0c-.9 0-1.4 4.2-1.8 14.7zM209 315.6c-31.1 3-57.5 5.6-58.8 5.9-6.5 1.5-8.2 8.6-3.2 12.9 2.6 2.1 3.8 2.5 7.3 2 2.3-.3 30.3-2.9 62.2-5.9l58-5.4 2.3-2.6c4.8-5.6.9-12.6-7-12.4-2.4.1-29.7 2.6-60.8 5.5zM209.5 335.5c-30.2 3-56.3 5.4-57.8 5.4-3.5.1-7.7 4.2-7.7 7.4 0 1.3.9 3.6 2.1 5.1 1.7 2.1 2.9 2.6 6.5 2.6 8.6 0 120.5-11 122.4-12 4.5-2.4 5.2-7.9 1.5-11.5-1.9-2-3.4-2.5-7.2-2.4-2.6.1-29.5 2.5-59.8 5.4zM212.5 355.5c-24.2 2.4-45.2 4.4-46.6 4.4-2.3.1-2.7.6-3.1 3.7-.3 2.8 0 3.9 1.6 4.9 1.7 1.1 12.4 3.5 15.9 3.5.4 0 .7.6.7 1.4 0 2.2 5.5 6.2 11.2 8.3 7.6 2.6 31 2.6 38.6 0 5.7-2 11.2-6.1 11.2-8.2 0-.8 1.5-1.6 3.5-2 1.9-.3 5.2-.8 7.3-1.1 2-.3 4.7-1.2 6-2 2.1-1.4 2.3-2.1 2-9.2-.3-6.9-.5-7.7-2.3-7.9-1.1 0-21.8 1.8-46 4.2z"/></svg>